<?xml version="1.0" encoding="utf-8"?>
<!-- Generator: Adobe Illustrator 27.0.1, SVG Export Plug-In . SVG Version: 6.00 Build 0)  -->
<svg version="1.1" id="Layer_1" xmlns="http://www.w3.org/2000/svg" xmlns:xlink="http://www.w3.org/1999/xlink" x="0px" y="0px"
	 viewBox="0 0 500 500" style="enable-background:new 0 0 500 500;" xml:space="preserve">
<style type="text/css">
	.st0{stroke:#000000;stroke-miterlimit:10;}
</style>
<g>
	<path class="st0" d="M208.5,263.2c0,0,17.6-2.5,10.5,27.6S194.6,260.1,208.5,263.2z"/>
	<path class="st0" d="M202.2,281.9c0,0-1.2,8.9,2.7,10.7c3.9,1.8-1,15.4-22.9,37.8c0,0-9.4,1.3-8.5-13.5c0,0-5.5-3-11.8-8.2
		C161.7,308.7,194.1,260.6,202.2,281.9z"/>
	<path class="st0" d="M126.5,324.1c0,0,32.1,28.3,43.2,5.3C181.5,305.2,141.6,320.7,126.5,324.1z"/>
	<path class="st0" d="M22.7,308.9c0,0,22.1-0.3,24.2,3.9c2.1,4.2,34.7,29.5,81.6,26.8s51.6,44.2,49.5,50c-2.1,5.8-18.4,40-75.3,10.5
		c0,0-87.4,22.6-99.5-10.5c0,0,1.1-6.3,15.8,4.2l11.6-4.2l12.6,4.2l13.7-10h13.7l7.9-7.4l9.5,2.6l2.8-3.7l-10.7-6.3l-2.1-8.7
		l-13.7-7.1l-4.2-12.1l-9.5-3.7l-3.7-12.6l-11.6-2.1l-4.7-6.8L22.7,308.9z"/>
</g>
<path class="st0" d="M447.4,190.9c0,0-3.4-249.3-154.3-138.7c-8.1,5.9-13.8,14.5-16.2,24.2c-7.4,30.1-16.4,93.9,45.7,80.9
	c0,0,16.1-14.7,18.5-14.6s9.9-6.1,13.7,11.5l1.4,11.3l2.6-14c0,0-4.4-46.3-55.3-17.6c0,0-29.4-62.4,36-85s75.2,71.9,43,141.3
	L447.4,190.9z"/>
<path class="st0" d="M481.3,249.8c0,5.7-4.6,10.4-10.3,10.4H233.3c-3.5,0-6.4-4-6.4-9v-69.2c0-5,2.9-9.1,6.5-9l237.6,2.5
	c5.7,0.1,10.2,4.7,10.2,10.3L481.3,249.8z"/>
<g>
	<path class="st0" d="M259,263.1c0,0,1.6,32.7,15.8,41.9c0,0-9.5,40.2-24,72.3c-14.4,32.1-3.4,52.6-3.4,52.6s-1-42.1,8.4-51.1
		c9.5-8.9,46.8-66.5,29.5-73.9c-17.3-7.4-18.7-41.9-18.7-41.9H259z"/>
	<path class="st0" d="M321.5,263.2c0,0,1.6,32.7,15.8,41.9c0,0-9.5,40.2-24,72.3s-3.4,52.6-3.4,52.6s-1-42.1,8.4-51.1
		c9.5-8.9,46.8-66.5,29.5-73.9c-17.3-7.4-18.7-41.9-18.7-41.9H321.5z"/>
	<path class="st0" d="M376,263.2c0,0,1.6,32.7,15.8,41.9c0,0-9.5,40.2-24,72.3s-3.4,52.6-3.4,52.6s-1-42.1,8.4-51.1
		c9.5-8.9,46.8-66.5,29.5-73.9c-17.3-7.4-18.7-41.9-18.7-41.9H376z"/>
	<path class="st0" d="M430.5,263.2c0,0,1.6,32.7,15.8,41.9c0,0-9.5,40.2-24,72.3c-14.4,32.1-3.4,52.6-3.4,52.6s-1-42.1,8.4-51.1
		c9.5-8.9,46.8-66.5,29.5-73.9c-17.3-7.4-18.7-41.9-18.7-41.9H430.5z"/>
</g>
<g>
	<path class="st0" d="M209.4,172.8c0,0,17.6,2.5,10.5-27.6C212.7,115,195.4,175.9,209.4,172.8z"/>
	<path class="st0" d="M203.1,154.1c0,0-1.2-8.9,2.7-10.7s-1-15.4-22.9-37.8c0,0-9.4-1.3-8.5,13.5c0,0-5.5,3-11.8,8.2
		C162.5,127.3,194.9,175.4,203.1,154.1z"/>
	<path class="st0" d="M127.4,111.9c0,0,32.1-28.3,43.2-5.3C182.4,130.8,142.4,115.3,127.4,111.9z"/>
	<path class="st0" d="M23.6,127.1c0,0,22.1,0.3,24.2-3.9s34.7-29.5,81.6-26.8c46.8,2.6,51.6-44.2,49.5-50
		c-2.1-5.8-18.4-40-75.3-10.5c0,0-87.4-22.6-99.5,10.5c0,0,1.1,6.3,15.8-4.2l11.6,4.2l12.6-4.2l13.7,10h13.7l7.9,7.4l9.5-2.6
		l2.8,3.7l-10.7,6.3l-2.1,8.7l-13.7,7.1l-4.2,12.1l-9.5,3.7l-3.7,12.6l-11.6,2.1l-4.7,6.8L23.6,127.1z"/>
</g>
<path class="st0" d="M220.7,250.6c0,2.4-1.8,4.3-4.1,4.3H123c-1.4,0-2.5-1.7-2.5-3.7l96.2-31.5c2.2,0,4,1.9,4,4.3L220.7,250.6z"/>
<path class="st0" d="M220.7,185.6c0-2.4-1.8-4.3-4.1-4.3H123c-1.4,0-2.5,1.7-2.5,3.7l96.2,31.5c2.2,0,4-1.9,4-4.3L220.7,185.6z"/>
</svg>
